# xmcd
#
# Track frame offsets: 
#        150
#        16963
#        33922
#        63239
#        79100
#
# Disc length: 1338 seconds
#
# Revision: 0
# Processed by: cddbd v1.5.2PL0 Copyright (c) Steve Scherf et al.
# Submitted via: ExactAudioCopy v0.90b4
#
DISCID=30053805
DTITLE=Mary Scholz - Philadelphia Nights
DYEAR=2007
DGENRE=Singer/Spmgeroter
TTITLE0=Mermaid
TTITLE1=Clark Kent
TTITLE2=Melancholy/Better Than This
TTITLE3=Philadelphia Nights
TTITLE4=Find Myself
EXTD=
EXTT0=
EXTT1=
EXTT2=
EXTT3=
EXTT4=
PLAYORDER=
